<?xml version="1.0" standalone="no"?>
<!DOCTYPE svg PUBLIC "-//W3C//DTD SVG 20010904//EN"
 "http://www.w3.org/TR/2001/REC-SVG-20010904/DTD/svg10.dtd">
<svg version="1.0" xmlns="http://www.w3.org/2000/svg"
 width="697.000000pt" height="587.000000pt" viewBox="0 0 697.000000 587.000000"
 preserveAspectRatio="xMidYMid meet">

<g transform="translate(0.000000,587.000000) scale(0.100000,-0.100000)"
fill="#000000" stroke="none">
<path d="M5076 5579 c-71 -24 -155 -76 -184 -114 -37 -47 -26 -106 25 -133 36
-19 57 -14 116 28 36 26 80 46 120 56 58 15 69 15 127 0 80 -21 124 -48 161
-99 92 -127 67 -305 -54 -396 -68 -50 -97 -58 -247 -65 -188 -9 -183 -4 -99
-97 l71 -79 88 0 c101 0 190 23 260 68 253 160 295 522 85 721 -124 117 -316
162 -469 110z"/>
<path d="M2910 5413 c-806 -86 -1515 -578 -1871 -1297 -38 -77 -69 -146 -69
-153 0 -11 36 -13 189 -13 l189 2 13 31 c78 199 290 406 497 486 168 64 377
78 542 36 101 -26 256 -106 335 -172 143 -120 255 -292 302 -463 25 -93 25
-348 -1 -440 -168 -601 -868 -855 -1369 -496 -117 83 -239 230 -293 352 l-24
54 -274 0 -274 0 -6 -22 c-14 -53 -18 -338 -7 -458 54 -560 289 -1063 682
-1458 364 -367 822 -597 1349 -679 157 -24 499 -24 661 0 511 76 978 307 1333
661 372 370 599 812 682 1324 21 133 30 481 15 612 -52 452 -229 879 -514
1233 -39 48 -77 87 -84 87 -29 0 -124 -55 -177 -102 -73 -65 -113 -73 -156
-30 -32 32 -37 63 -17 99 17 31 119 116 173 145 24 12 44 26 44 29 0 8 -138
123 -225 189 -308 230 -737 396 -1137 439 -90 10 -428 13 -508 4z m1611 -928
c60 -31 61 -103 3 -155 -90 -79 -202 15 -131 111 22 31 61 58 85 59 7 0 26 -7
43 -15z m133 -494 c58 -55 12 -151 -72 -151 l-40 0 -4 -142 c-3 -130 -6 -148
-30 -200 -91 -195 -317 -283 -515 -202 -59 25 -139 91 -172 142 -48 78 -60
129 -63 272 l-2 130 -41 0 c-71 0 -111 50 -93 117 17 63 12 63 535 60 l471 -2
26 -24z m-1019 -2274 c20 -29 19 -90 -2 -115 -13 -15 -133 -55 -443 -146 -234
-70 -438 -126 -453 -126 -39 0 -87 49 -87 89 0 66 10 71 479 210 466 138 471
139 506 88z"/>
<path d="M2045 4345 c-150 -27 -282 -102 -395 -222 -188 -201 -239 -494 -131
-753 79 -190 263 -349 471 -406 101 -28 283 -26 380 4 235 74 401 236 477 467
23 70 27 96 27 215 0 126 -2 141 -31 223 -91 258 -286 424 -553 473 -91 16
-153 16 -245 -1z m614 -340 c32 -16 41 -33 41 -75 0 -16 -3 -36 -6 -45 -9 -22
-57 -45 -96 -45 l-33 0 -3 -130 c-3 -189 -41 -280 -150 -362 -203 -154 -492
-82 -600 150 -24 52 -27 70 -30 200 l-4 142 -34 0 c-93 0 -144 79 -94 143 11
14 30 28 43 30 12 2 228 5 480 6 384 1 463 -1 486 -14z"/>
<path d="M876 3743 c-9 -27 -24 -87 -35 -135 l-19 -88 236 0 237 0 0 135 0
135 -202 0 -201 0 -16 -47z"/>
</g>
</svg>
