<?xml version="1.0" standalone="no"?>
<!DOCTYPE svg PUBLIC "-//W3C//DTD SVG 20010904//EN"
 "http://www.w3.org/TR/2001/REC-SVG-20010904/DTD/svg10.dtd">
<svg version="1.0" xmlns="http://www.w3.org/2000/svg"
 width="700.000000pt" height="700.000000pt" viewBox="0 0 700.000000 700.000000"
 preserveAspectRatio="xMidYMid meet">

<g transform="translate(0.000000,700.000000) scale(0.100000,-0.100000)"
fill="#000000" stroke="none">
<path d="M3190 6454 c-134 -18 -347 -72 -475 -119 -217 -81 -479 -228 -645
-365 -453 -370 -751 -904 -825 -1474 -18 -146 -21 -420 -5 -557 62 -515 287
-978 654 -1345 345 -345 740 -549 1241 -640 144 -27 586 -27 730 0 501 91 896
296 1241 640 344 345 549 740 640 1241 15 81 19 151 19 365 0 214 -4 284 -19
365 -91 501 -295 896 -640 1241 -362 362 -805 581 -1316 650 -134 17 -461 17
-600 -2z m-695 -1035 c33 -9 89 -59 334 -302 161 -161 299 -306 307 -324 61
-142 -87 -290 -229 -229 -18 8 -163 146 -324 307 -252 255 -293 300 -303 337
-22 83 30 177 115 207 49 17 51 17 100 4z m2097 1 c45 -13 93 -52 115 -93 20
-39 20 -115 0 -153 -23 -43 -587 -601 -620 -614 -142 -52 -283 95 -223 233 8
18 144 162 303 320 323 322 336 331 425 307z m-1036 -1580 c46 -16 765 -561
791 -599 32 -47 32 -135 0 -182 -36 -54 -82 -79 -144 -79 -30 0 -64 5 -76 12
-12 6 -155 112 -319 235 -164 122 -302 223 -308 223 -5 0 -144 -101 -308 -224
-164 -123 -308 -229 -320 -235 -11 -6 -45 -11 -75 -11 -62 0 -108 25 -144 79
-30 45 -32 132 -3 178 20 34 715 564 779 595 41 20 85 23 127 8z"/>
</g>
</svg>
