<?xml version="1.0" standalone="no"?>
<!DOCTYPE svg PUBLIC "-//W3C//DTD SVG 20010904//EN"
 "http://www.w3.org/TR/2001/REC-SVG-20010904/DTD/svg10.dtd">
<svg version="1.0" xmlns="http://www.w3.org/2000/svg"
 width="700.000000pt" height="700.000000pt" viewBox="0 0 700.000000 700.000000"
 preserveAspectRatio="xMidYMid meet">

<g transform="translate(0.000000,700.000000) scale(0.100000,-0.100000)"
fill="#000000" stroke="none">
<path d="M5346 6629 c-71 -24 -155 -76 -184 -114 -37 -47 -26 -106 25 -133 36
-19 57 -14 116 28 36 26 80 46 120 56 58 15 69 15 127 0 80 -21 124 -48 161
-99 84 -116 72 -274 -28 -374 -64 -64 -100 -76 -258 -85 -204 -13 -199 -8
-112 -102 l72 -78 105 4 c76 4 121 11 162 27 258 100 372 407 244 658 -47 94
-171 187 -291 219 -74 20 -189 17 -259 -7z"/>
<path d="M3115 6454 c-428 -58 -840 -234 -1173 -501 -265 -212 -482 -482 -633
-787 -38 -77 -69 -146 -69 -153 0 -10 39 -13 189 -13 l189 0 12 33 c56 140
203 314 343 405 442 288 1037 122 1267 -353 73 -150 85 -202 85 -385 0 -173
-12 -231 -70 -357 -117 -254 -340 -439 -605 -503 -116 -27 -284 -27 -399 0
-101 24 -230 83 -315 144 -115 82 -235 226 -292 351 l-25 55 -274 0 -273 0 -6
-22 c-3 -13 -9 -90 -12 -173 -25 -551 166 -1122 522 -1562 321 -396 771 -685
1259 -808 218 -55 343 -69 585 -69 238 0 363 14 566 63 787 193 1428 783 1685
1552 161 480 160 1033 -2 1507 -52 151 -179 409 -264 537 -86 129 -204 275
-222 275 -29 0 -124 -55 -177 -102 -73 -65 -113 -73 -156 -30 -32 32 -37 63
-17 99 17 31 119 116 173 145 24 12 44 26 44 30 0 4 -47 46 -105 93 -355 292
-766 471 -1218 530 -146 19 -471 18 -612 -1z m1676 -919 c60 -31 61 -103 3
-155 -44 -39 -94 -41 -129 -5 -45 44 -26 116 40 156 37 23 48 23 86 4z m133
-494 c58 -55 12 -151 -72 -151 l-40 0 -4 -142 c-3 -130 -6 -148 -30 -200 -35
-75 -109 -153 -179 -189 -198 -100 -439 -19 -536 179 -26 53 -28 67 -31 203
l-4 147 -51 5 c-60 5 -87 31 -87 82 0 96 -9 95 542 92 l466 -2 26 -24z m-1017
-2277 c21 -33 19 -92 -3 -114 -21 -20 -851 -270 -897 -270 -39 0 -87 49 -87
89 0 66 10 71 479 210 469 139 472 139 508 85z"/>
<path d="M2315 5395 c-211 -38 -408 -185 -503 -377 -49 -98 -69 -168 -77 -281
-21 -275 138 -547 391 -671 116 -56 182 -71 324 -70 107 1 137 5 205 27 113
37 198 90 285 177 87 87 140 172 177 285 23 70 26 96 27 215 0 122 -3 143 -28
215 -89 259 -290 434 -552 480 -102 18 -154 18 -249 0z m604 -336 c17 -6 36
-19 41 -29 11 -21 13 -70 4 -95 -9 -23 -57 -45 -98 -45 l-34 0 -4 -147 c-3
-138 -5 -152 -31 -205 -121 -247 -453 -299 -640 -99 -27 29 -60 77 -75 109
-24 52 -27 70 -30 200 l-4 142 -34 0 c-42 0 -89 23 -104 49 -23 44 -2 103 44
121 33 13 926 12 965 -1z"/>
<path d="M1141 4773 c-11 -38 -27 -98 -34 -135 l-15 -68 237 0 236 0 0 135 0
135 -202 0 -202 0 -20 -67z"/>
<path d="M2550 364 l0 -65 -22 15 c-35 24 -94 20 -123 -8 -45 -45 -45 -147 0
-192 29 -28 88 -32 123 -8 20 14 22 14 22 0 0 -12 10 -16 40 -16 l40 0 0 170
0 170 -40 0 -40 0 0 -66z m-16 -106 c29 -42 9 -118 -31 -118 -29 0 -53 31 -53
68 0 64 53 95 84 50z"/>
<path d="M2850 260 l0 -170 35 0 c25 0 35 4 35 16 0 14 2 14 22 0 34 -24 92
-20 125 8 26 22 28 30 28 96 0 66 -2 74 -28 96 -33 28 -91 32 -125 8 l-22 -15
0 65 0 66 -35 0 -35 0 0 -170z m154 4 c33 -32 12 -124 -28 -124 -30 0 -51 28
-51 70 0 60 44 90 79 54z"/>
<path d="M4220 260 l0 -170 35 0 35 0 0 65 c0 96 28 139 74 113 13 -7 16 -26
16 -93 l0 -85 41 0 41 0 -4 99 c-3 80 -7 104 -22 120 -23 26 -86 28 -121 5
l-25 -16 0 66 0 66 -35 0 -35 0 0 -170z"/>
<path d="M6450 400 c0 -28 3 -30 35 -30 32 0 35 2 35 30 0 28 -3 30 -35 30
-32 0 -35 -2 -35 -30z"/>
<path d="M803 404 c-106 -53 -105 -248 1 -298 38 -18 137 -21 167 -6 26 14 28
76 2 64 -10 -4 -39 -9 -65 -12 -40 -3 -51 0 -73 22 -46 46 -26 168 30 182 27
7 80 2 108 -11 26 -11 24 51 -2 65 -30 15 -132 12 -168 -6z"/>
<path d="M3663 404 c-106 -53 -105 -248 1 -298 38 -18 137 -21 167 -6 26 14
28 76 2 64 -10 -4 -39 -9 -65 -12 -40 -3 -51 0 -73 22 -46 46 -26 168 30 182
27 7 80 2 108 -11 26 -11 24 51 -2 65 -30 15 -132 12 -168 -6z"/>
<path d="M5270 255 l0 -165 40 0 40 0 0 60 c0 33 4 60 9 60 5 0 34 -27 64 -60
53 -59 55 -60 108 -60 l54 0 -83 83 c-45 45 -82 87 -82 92 0 5 33 42 72 82
l72 73 -44 0 c-41 0 -49 -5 -107 -62 l-63 -62 0 62 0 62 -40 0 -40 0 0 -165z"/>
<path d="M1887 403 c-4 -3 -7 -21 -7 -40 0 -23 -5 -33 -15 -33 -10 0 -15 -10
-15 -30 0 -19 5 -30 14 -30 10 0 15 -19 18 -71 5 -88 24 -109 99 -109 48 0 49
1 49 30 0 28 -3 30 -35 30 l-35 0 0 60 0 60 40 0 c38 0 40 2 40 30 0 28 -2 30
-40 30 l-40 0 0 40 c0 39 -1 40 -33 40 -19 0 -37 -3 -40 -7z"/>
<path d="M1060 210 l0 -120 35 0 35 0 0 63 c0 84 15 111 63 115 34 3 37 6 37
33 0 25 -4 29 -28 29 -15 0 -38 -7 -50 -16 -20 -14 -22 -14 -22 0 0 12 -10 16
-35 16 l-35 0 0 -120z"/>
<path d="M1298 301 c-31 -27 -33 -34 -33 -91 0 -57 2 -64 33 -91 28 -25 40
-29 95 -29 91 0 107 7 107 42 0 25 -3 29 -17 23 -10 -4 -39 -10 -65 -12 -49
-6 -78 7 -78 33 0 11 19 14 84 14 47 0 87 4 90 8 3 4 1 26 -4 48 -13 58 -51
84 -122 84 -50 0 -62 -4 -90 -29z m132 -41 c10 -19 8 -20 -40 -20 -51 0 -60 6
-38 28 19 19 66 15 78 -8z"/>
<path d="M1587 323 c-4 -3 -7 -16 -7 -28 0 -20 5 -22 67 -21 85 1 96 -18 16
-28 -70 -8 -103 -34 -103 -83 0 -47 29 -73 82 -73 24 0 49 7 60 17 17 15 18
15 18 0 0 -13 9 -17 40 -17 l40 0 0 85 c0 94 -11 128 -47 144 -26 12 -155 15
-166 4z m133 -141 c0 -10 -5 -23 -12 -30 -17 -17 -57 -15 -64 3 -11 28 4 45
41 45 27 0 35 -4 35 -18z"/>
<path d="M2108 301 c-31 -27 -33 -34 -33 -91 0 -57 2 -64 33 -91 28 -25 40
-29 95 -29 91 0 107 7 107 42 0 25 -3 29 -17 23 -10 -4 -39 -10 -65 -12 -49
-6 -78 7 -78 33 0 11 19 14 84 14 47 0 87 4 90 8 3 4 1 26 -4 48 -13 58 -51
84 -122 84 -50 0 -62 -4 -90 -29z m132 -41 c10 -19 8 -20 -40 -20 -51 0 -60 6
-38 28 19 19 66 15 78 -8z"/>
<path d="M3130 325 c0 -3 23 -59 52 -125 43 -100 49 -122 38 -135 -7 -8 -23
-15 -36 -15 -19 0 -24 -5 -24 -25 0 -22 4 -25 36 -25 70 0 74 5 150 198 l52
132 -38 0 -37 0 -28 -77 -28 -77 -14 30 c-7 16 -22 50 -33 77 -18 43 -22 47
-55 47 -19 0 -35 -2 -35 -5z"/>
<path d="M3927 323 c-4 -3 -7 -16 -7 -28 0 -20 5 -22 67 -21 85 1 96 -18 16
-28 -70 -8 -103 -34 -103 -83 0 -47 29 -73 82 -73 24 0 49 7 60 17 17 15 18
15 18 0 0 -13 9 -17 40 -17 l40 0 0 85 c0 94 -11 128 -47 144 -26 12 -155 15
-166 4z m133 -141 c0 -10 -5 -23 -12 -30 -17 -17 -57 -15 -64 3 -11 28 4 45
41 45 27 0 35 -4 35 -18z"/>
<path d="M4500 325 c0 -3 23 -59 52 -125 43 -100 49 -122 38 -135 -7 -8 -23
-15 -36 -15 -19 0 -24 -5 -24 -25 0 -22 4 -25 36 -25 70 0 74 5 150 198 l52
132 -38 0 -37 0 -28 -77 -28 -77 -14 30 c-7 16 -22 50 -33 77 -18 43 -22 47
-55 47 -19 0 -35 -2 -35 -5z"/>
<path d="M4827 323 c-4 -3 -7 -16 -7 -28 0 -20 5 -22 67 -21 85 1 96 -18 16
-28 -70 -8 -103 -34 -103 -83 0 -47 29 -73 82 -73 24 0 49 7 60 17 17 15 18
15 18 0 0 -13 9 -17 40 -17 l40 0 0 85 c0 94 -11 128 -47 144 -26 12 -155 15
-166 4z m133 -141 c0 -10 -5 -23 -12 -30 -17 -17 -57 -15 -64 3 -11 28 4 45
41 45 27 0 35 -4 35 -18z"/>
<path d="M5600 258 c0 -88 14 -144 40 -158 28 -15 82 -12 108 6 20 14 22 14
22 0 0 -12 10 -16 35 -16 l35 0 0 120 0 120 -34 0 -34 0 -4 -81 c-3 -66 -7
-83 -23 -95 -24 -18 -30 -18 -49 2 -12 11 -16 36 -16 95 l0 79 -40 0 -40 0 0
-72z"/>
<path d="M5920 210 l0 -120 35 0 35 0 0 63 c0 84 15 111 63 115 34 3 37 6 37
33 0 25 -4 29 -28 29 -15 0 -38 -7 -50 -16 -20 -14 -22 -14 -22 0 0 12 -10 16
-35 16 l-35 0 0 -120z"/>
<path d="M6140 210 l0 -120 35 0 35 0 0 65 c0 96 28 139 74 113 13 -7 16 -26
16 -93 l0 -85 41 0 41 0 -4 99 c-3 80 -7 104 -22 120 -23 26 -86 28 -121 5
-23 -15 -25 -15 -25 0 0 12 -9 16 -35 16 l-35 0 0 -120z"/>
<path d="M6450 210 l0 -120 35 0 35 0 0 120 0 120 -35 0 -35 0 0 -120z"/>
<path d="M6607 323 c-4 -3 -7 -16 -7 -28 0 -20 5 -22 67 -21 85 1 96 -18 16
-28 -70 -8 -103 -34 -103 -83 0 -47 29 -73 82 -73 24 0 49 7 60 17 17 15 18
15 18 0 0 -13 9 -17 40 -17 l40 0 0 85 c0 94 -11 128 -47 144 -26 12 -155 15
-166 4z m133 -141 c0 -10 -5 -23 -12 -30 -17 -17 -57 -15 -64 3 -11 28 4 45
41 45 27 0 35 -4 35 -18z"/>
<path d="M6881 318 c0 -7 13 -60 28 -118 27 -104 28 -105 59 -108 l32 -3 0 51
c0 28 -4 49 -9 46 -5 -3 -11 11 -15 32 -3 20 -11 54 -16 75 -10 34 -14 37 -45
37 -22 0 -35 -5 -34 -12z"/>
</g>
</svg>
